<svg width="39" height="25" viewBox="0 0 39 25" fill="none" xmlns="http://www.w3.org/2000/svg">
<g clip-path="url(#clip0_1709_54047)">
<path d="M35.5 0.5H3.5C1.8 0.5 0.5 1.8 0.5 3.5V21.5C0.5 23.2 1.9 24.5 3.5 24.5H35.5C37.2 24.5 38.5 23.2 38.5 21.5V3.5C38.5 1.8 37.1 0.5 35.5 0.5Z" fill="#DEDEDE"/>
<path d="M35.5 1.5C36.6 1.5 37.5 2.4 37.5 3.5V21.5C37.5 22.6 36.6 23.5 35.5 23.5H3.5C2.4 23.5 1.5 22.6 1.5 21.5V3.5C1.5 2.4 2.4 1.5 3.5 1.5H35.5Z" fill="#006FCF"/>
<path d="M9.471 10.768L10.245 12.644H8.703L9.471 10.768ZM25.546 10.846H22.569V11.673H25.498V12.912H22.575V13.834H25.552V14.573L27.629 12.328L25.552 9.988L25.546 10.846ZM11.483 8.506H15.478L16.365 10.441L17.187 8.5H27.557L28.635 9.69L29.75 8.5H34.513L30.994 12.352L34.477 16.18H29.643L28.565 14.99L27.44 16.18H10.53L10.036 14.99H8.906L8.411 16.18H4.5L7.786 8.5H11.216L11.483 8.506ZM20.146 9.584H17.907L16.407 13.12L14.782 9.584H12.56V14.394L10.5 9.584H8.507L6.125 15.096H7.68L8.174 13.906H10.77L11.264 15.096H13.984V11.161L15.735 15.102H16.925L18.665 11.173V15.103H20.123L20.147 9.583L20.146 9.584ZM29.486 12.352L32.017 9.584H30.195L28.594 11.31L27.046 9.584H21.152V15.102H26.962L28.576 13.364L30.124 15.102H31.999L29.487 12.352H29.486Z" fill="white"/>
</g>
<defs>
<clipPath id="clip0_1709_54047">
<rect width="38" height="24" fill="white" transform="translate(0.5 0.5)"/>
</clipPath>
</defs>
</svg>
