<svg width="36" height="33" viewBox="0 0 36 33" fill="none" xmlns="http://www.w3.org/2000/svg">
<path d="M11 6.5V10.5H17V6.5C17 4.875 15.625 3.5 14 3.5C12.3125 3.5 11 4.875 11 6.5ZM8 10.5V6.5C8 3.1875 10.6875 0.5 14 0.5C17.3125 0.5 20 3.1875 20 6.5V10.5H24C26.1875 10.5 28 12.3125 28 14.5H15C12.1875 14.5 10 16.75 10 19.5V29.5C10 29.875 10 30.1875 10.0625 30.5H4C1.75 30.5 0 28.75 0 26.5V14.5C0 12.3125 1.75 10.5 4 10.5H8ZM16 16.5H32C34.1875 16.5 36 18.3125 36 20.5V28.5C36 30.75 34.1875 32.5 32 32.5H16C13.75 32.5 12 30.75 12 28.5V20.5C12 18.3125 13.75 16.5 16 16.5ZM20 21.5C20 21 19.5 20.5 19 20.5C18.4375 20.5 18 21 18 21.5V22.5C18 25.8125 20.6875 28.5 24 28.5C27.3125 28.5 30 25.8125 30 22.5V21.5C30 21 29.5 20.5 29 20.5C28.4375 20.5 28 21 28 21.5V22.5C28 24.75 26.1875 26.5 24 26.5C21.75 26.5 20 24.75 20 22.5V21.5Z" fill="#2E8DFF"/>
</svg>
