<svg width="39" height="25" viewBox="0 0 39 25" fill="none" xmlns="http://www.w3.org/2000/svg">
<g clip-path="url(#clip0_1709_54041)">
<path d="M35.5 0.5H3.5C1.8 0.5 0.5 1.8 0.5 3.5V21.5C0.5 23.2 1.9 24.5 3.5 24.5H35.5C37.2 24.5 38.5 23.2 38.5 21.5V3.5C38.5 1.8 37.1 0.5 35.5 0.5Z" fill="#DEDEDE"/>
<path d="M35.5 1.5C36.6 1.5 37.5 2.4 37.5 3.5V21.5C37.5 22.6 36.6 23.5 35.5 23.5H3.5C2.4 23.5 1.5 22.6 1.5 21.5V3.5C1.5 2.4 2.4 1.5 3.5 1.5H35.5Z" fill="white"/>
<path d="M15.5 19.5C19.366 19.5 22.5 16.366 22.5 12.5C22.5 8.63401 19.366 5.5 15.5 5.5C11.634 5.5 8.5 8.63401 8.5 12.5C8.5 16.366 11.634 19.5 15.5 19.5Z" fill="#EB001B"/>
<path d="M23.5 19.5C27.366 19.5 30.5 16.366 30.5 12.5C30.5 8.63401 27.366 5.5 23.5 5.5C19.634 5.5 16.5 8.63401 16.5 12.5C16.5 16.366 19.634 19.5 23.5 19.5Z" fill="#F79E1B"/>
<path d="M22.5 12.4998C22.5 10.0998 21.3 7.9998 19.5 6.7998C17.7 8.0998 16.5 10.1998 16.5 12.4998C16.5 14.7998 17.7 16.9998 19.5 18.1998C21.3 16.9998 22.5 14.8998 22.5 12.4998Z" fill="#FF5F00"/>
</g>
<defs>
<clipPath id="clip0_1709_54041">
<rect width="38" height="24" fill="white" transform="translate(0.5 0.5)"/>
</clipPath>
</defs>
</svg>
