<svg width="39" height="25" viewBox="0 0 39 25" fill="none" xmlns="http://www.w3.org/2000/svg">
<g clip-path="url(#clip0_1709_54037)">
<path d="M35.5 0.5H3.5C1.8 0.5 0.5 1.8 0.5 3.5V21.5C0.5 23.2 1.9 24.5 3.5 24.5H35.5C37.2 24.5 38.5 23.2 38.5 21.5V3.5C38.5 1.8 37.1 0.5 35.5 0.5Z" fill="#DEDEDE"/>
<path d="M35.5 1.5C36.6 1.5 37.5 2.4 37.5 3.5V21.5C37.5 22.6 36.6 23.5 35.5 23.5H3.5C2.4 23.5 1.5 22.6 1.5 21.5V3.5C1.5 2.4 2.4 1.5 3.5 1.5H35.5Z" fill="white"/>
<path d="M28.8 10.6H28.5C28.1 11.6 27.8 12.1 27.5 13.6H29.4C29.1 12.1 29.1 11.4 28.8 10.6ZM31.7 16.5H30C29.9 16.5 29.9 16.5 29.8 16.4L29.6 15.5L29.5 15.3H27.1C27 15.3 26.9 15.3 26.9 15.5L26.6 16.4C26.6 16.5 26.5 16.5 26.5 16.5H24.4L24.6 16L27.5 9.2C27.5 8.7 27.8 8.5 28.3 8.5H29.8C29.9 8.5 30 8.5 30 8.7L31.4 15.2C31.5 15.6 31.6 15.9 31.6 16.3C31.7 16.4 31.7 16.4 31.7 16.5ZM18.3 16.2L18.7 14.4C18.8 14.4 18.9 14.5 18.9 14.5C19.6 14.8 20.3 15 21 14.9C21.2 14.9 21.5 14.8 21.7 14.7C22.2 14.5 22.2 14 21.8 13.6C21.6 13.4 21.3 13.3 21 13.1C20.6 12.9 20.2 12.7 19.9 12.4C18.7 11.4 19.1 10 19.8 9.3C20.4 8.9 20.7 8.5 21.5 8.5C22.7 8.5 24 8.5 24.6 8.7H24.7C24.6 9.3 24.5 9.8 24.3 10.4C23.8 10.2 23.3 10 22.8 10C22.5 10 22.2 10 21.9 10.1C21.7 10.1 21.6 10.2 21.5 10.3C21.3 10.5 21.3 10.8 21.5 11L22 11.4C22.4 11.6 22.8 11.8 23.1 12C23.6 12.3 24.1 12.8 24.2 13.4C24.4 14.3 24.1 15.1 23.3 15.7C22.8 16.1 22.6 16.3 21.9 16.3C20.5 16.3 19.4 16.4 18.5 16.1C18.4 16.3 18.4 16.3 18.3 16.2ZM14.8 16.5C14.9 15.8 14.9 15.8 15 15.5C15.5 13.3 16 11 16.4 8.8C16.5 8.6 16.5 8.5 16.7 8.5H18.5C18.3 9.7 18.1 10.6 17.8 11.7C17.5 13.2 17.2 14.7 16.8 16.2C16.8 16.4 16.7 16.4 16.5 16.4L14.8 16.5ZM5.5 8.7C5.5 8.6 5.7 8.5 5.8 8.5H9.2C9.7 8.5 10.1 8.8 10.2 9.3L11.1 13.7C11.1 13.8 11.1 13.8 11.2 13.9C11.2 13.8 11.3 13.8 11.3 13.8L13.4 8.7C13.3 8.6 13.4 8.5 13.5 8.5H15.6C15.6 8.6 15.6 8.6 15.5 8.7L12.4 16C12.3 16.2 12.3 16.3 12.2 16.4C12.1 16.5 11.9 16.4 11.7 16.4H10.2C10.1 16.4 10 16.4 10 16.2L8.4 10C8.2 9.8 7.9 9.5 7.5 9.4C6.9 9.1 5.8 8.9 5.6 8.9L5.5 8.7Z" fill="#142688"/>
</g>
<defs>
<clipPath id="clip0_1709_54037">
<rect width="38" height="24" fill="white" transform="translate(0.5 0.5)"/>
</clipPath>
</defs>
</svg>
