<svg width="51" height="23" viewBox="0 0 51 23" fill="none" xmlns="http://www.w3.org/2000/svg">
<g clip-path="url(#clip0_1709_54169)">
<path d="M50.5 4.14305C50.5 2.34301 49.0077 0.883789 47.1667 0.883789H3.83333C1.99238 0.883789 0.5 2.34301 0.5 4.14305V19.6245C0.5 21.4246 1.99239 22.8838 3.83333 22.8838H47.1667C49.0077 22.8838 50.5 21.4246 50.5 19.6245V4.14305Z" fill="#1A0826"/>
<path d="M20.0068 8.46582L21.1538 17.5907H32.3702L31.223 8.46582H20.0068Z" fill="#AA8FFF"/>
<path d="M23.2065 4.98355C23.9219 5.64114 24.02 6.67539 23.4257 7.29365C22.8314 7.91192 21.7695 7.88003 21.0542 7.22245C20.3389 6.56488 20.2407 5.53064 20.835 4.91237C21.4294 4.29412 22.4912 4.32598 23.2065 4.98355Z" fill="#FFFFFA"/>
<path fill-rule="evenodd" clip-rule="evenodd" d="M44.125 11.7515C43.8668 9.69933 42.2182 8.45865 39.9793 8.46585H32.5215L33.6685 17.5907H37.025L36.7963 15.7657H40.3481C43.1402 15.7657 44.42 14.0634 44.125 11.7515ZM39.983 13.2086L36.4716 13.2122L36.195 11.023L39.7248 11.0266C40.5547 11.0374 40.9788 11.4918 41.049 12.1194C41.0932 12.5198 40.905 13.2086 39.983 13.2086Z" fill="#FFFFFA"/>
<path d="M8.32618 15.0408L8.64707 17.5907H19.8522L19.4833 14.6729H14.2607L14.2128 14.3086L19.026 11.023L18.7052 8.46582H7.5L7.86515 11.3872H13.0989L13.1469 11.7515L8.32618 15.0408Z" fill="#FFFFFA"/>
</g>
<defs>
<clipPath id="clip0_1709_54169">
<rect width="50" height="22" fill="white" transform="translate(0.5 0.883789)"/>
</clipPath>
</defs>
</svg>
