<svg width="39" height="25" viewBox="0 0 39 25" fill="none" xmlns="http://www.w3.org/2000/svg">
<g clip-path="url(#clip0)">
<path d="M35.5 0.5H3.5C1.8 0.5 0.5 1.8 0.5 3.5V21.5C0.5 23.2 1.9 24.5 3.5 24.5H35.5C37.2 24.5 38.5 23.2 38.5 21.5V3.5C38.5 1.8 37.1 0.5 35.5 0.5Z" fill="#DEDEDE"/>
<rect x="1.5" y="1.5" width="36" height="22" rx="2" fill="#4A4A4A"/>
<rect x="1.5" y="5.5" width="36" height="4" fill="#2A2A2A"/>
<rect x="4" y="13" width="14" height="3" rx="1" fill="#888888"/>
<rect x="4" y="17" width="10" height="2" rx="0.5" fill="#888888"/>
<rect x="28" y="15" width="8" height="5" rx="1" fill="rgba(255,255,255,0.2)"/>
</g>
<defs>
<clipPath id="clip0">
<rect width="38" height="24" fill="white" transform="translate(0.5 0.5)"/>
</clipPath>
</defs>
</svg>
