<svg width="212" height="19" viewBox="0 0 212 19" fill="none" xmlns="http://www.w3.org/2000/svg">
<path d="M69.6457 0.953125H67.8611V14.7608L55.0475 0.953125H52.3789L54.0497 2.62599V18.079H55.8942V4.69876L68.3568 18.079H69.6457V0.953125Z" fill="#111111"/>
<path d="M42.151 0.953125H40.3635V14.7608L27.5436 0.953125H24.8809L26.5456 2.62599V18.079H28.3997V4.69876L40.8594 18.079H42.151V0.953125Z" fill="#111111"/>
<path d="M176.866 16.6494C172.931 16.6494 169.728 13.4391 169.728 9.48364C169.728 5.535 172.931 2.31857 176.866 2.31857C180.801 2.31857 184.007 5.53522 184.007 9.48364C184.007 13.4388 180.801 16.6494 176.866 16.6494ZM176.866 0.486328C171.911 0.486328 167.896 4.51794 167.896 9.48364C167.896 14.4559 171.911 18.4875 176.866 18.4875C181.822 18.4875 185.83 14.4559 185.83 9.48364C185.83 4.51794 181.822 0.486328 176.866 0.486328Z" fill="#111111"/>
<path d="M100.866 0.958984H85.4975L84.5723 2.70216H91.7731V18.0918H93.6712V2.70216H99.947L100.866 0.958984Z" fill="#111111"/>
<path d="M109.813 10.7708L113.082 4.62279L116.376 10.7708H109.813ZM113.167 0.958984H111.127L112.068 2.73697L103.85 18.0975H105.877L108.853 12.5262H117.308L120.286 18.0975H122.336L113.167 0.958984Z" fill="#111111"/>
<path d="M5.95994 10.7708L9.23212 4.62279L12.523 10.7708H5.95994ZM9.31412 0.958984H7.27386L8.21807 2.73697L0 18.0975H2.01819L5.00266 12.5262H13.4575L16.4328 18.0975H18.4825L9.31412 0.958984Z" fill="#111111"/>
<path d="M139.655 0.972656L133.493 10.8191L127.394 0.972656H125.174L132.568 12.7426V18.0981H134.412H134.415V12.7426L141.812 0.972656H139.655Z" fill="#111111"/>
<path d="M162.966 16.3558H151.327V0.972656H149.477V18.0953H162.034L162.966 16.3558Z" fill="#111111"/>
<path d="M203.004 8.33392H196.252V2.72463H203.326C205.082 2.72463 206.377 3.95712 206.377 5.50068C206.377 7.00287 205.379 8.33392 203.004 8.33392ZM206.649 12.7677C205.894 11.9848 205.212 11.259 204.517 10.6285C204.299 10.4381 203.908 10.1151 203.649 9.96H203.775C206.175 9.84245 208.168 7.91571 208.168 5.48825C208.168 2.8198 206.008 0.978516 203.418 0.978516H194.379V18.1044H196.223V10.0323H198.425C200.999 10.0323 201.874 10.7967 203.311 12.0895C203.962 12.6691 204.571 13.2908 205.329 14.0194C207.284 15.9052 209.113 17.7244 211.125 18.5262L212 16.8877C210.218 16.2823 208.43 14.6027 206.649 12.7677Z" fill="#111111"/>
</svg>
