<svg width="72" height="25" viewBox="0 0 72 25" fill="none" xmlns="http://www.w3.org/2000/svg">
<path fill-rule="evenodd" clip-rule="evenodd" d="M24.8802 7.96191H28.3413C29.4997 7.96191 30.3722 8.28215 30.8641 8.88762C31.312 9.43902 31.4603 10.2263 31.3054 11.2284C30.9618 13.5188 29.646 14.6746 27.3661 14.6746H26.2704C26.034 14.6746 25.8321 14.8549 25.7957 15.1004L25.4181 17.6081C25.3812 17.8536 25.1798 18.0339 24.9429 18.0339H23.2905C23.1129 18.0339 22.9773 17.8685 23.0051 17.685L24.4049 8.38712C24.4419 8.14218 24.6433 7.96191 24.8802 7.96191ZM26.6841 12.6585C27.6017 12.6585 28.5506 12.6585 28.7399 11.3574C28.8092 10.9004 28.7535 10.5696 28.5719 10.3469C28.2672 9.97363 27.6776 9.97363 27.0526 9.97363H26.8132C26.6715 9.97363 26.55 10.0818 26.5283 10.2287L26.1619 12.6585H26.6841Z" fill="#253B80"/>
<path fill-rule="evenodd" clip-rule="evenodd" d="M37.0305 11.3156H38.6879C38.8651 11.3156 39.0002 11.4816 38.9718 11.6645L38.0761 17.6074C38.0386 17.8529 37.8382 18.0331 37.6008 18.0331H36.1079C35.9313 18.0331 35.7956 17.8677 35.8235 17.6832L35.8974 17.2007C35.8974 17.2007 35.079 18.1948 33.6033 18.1948C32.7434 18.1948 32.0207 17.935 31.5156 17.3115C30.965 16.6334 30.7398 15.6611 30.8982 14.6442C31.2029 12.6056 32.7672 11.1523 34.5987 11.1523C35.3973 11.1523 36.1975 11.3347 36.5563 11.8803L36.6722 12.0563L36.7456 11.5707C36.7673 11.4238 36.8893 11.3156 37.0305 11.3156ZM34.5067 16.3524C35.4652 16.3524 36.2168 15.6865 36.3767 14.6945C36.4491 14.2142 36.3489 13.7784 36.0963 13.4661C35.8443 13.157 35.4617 12.9932 34.991 12.9932C34.0472 12.9932 33.283 13.6808 33.1337 14.6643C33.0557 15.1468 33.1489 15.5799 33.3938 15.8843C33.6408 16.1907 34.0254 16.3524 34.5067 16.3524Z" fill="#253B80"/>
<path d="M47.5127 11.3164H45.8472C45.6883 11.3164 45.539 11.3991 45.4489 11.5375L43.1518 15.0823L42.1781 11.6759C42.1168 11.4627 41.9291 11.3164 41.7165 11.3164H40.0798C39.8809 11.3164 39.7428 11.52 39.806 11.7162L41.6406 17.3563L39.9158 19.907C39.7802 20.108 39.9169 20.3842 40.1512 20.3842H41.8147C41.9726 20.3842 42.1204 20.3036 42.2099 20.1679L47.7496 11.7909C47.8822 11.5905 47.746 11.3164 47.5127 11.3164Z" fill="#253B80"/>
<path fill-rule="evenodd" clip-rule="evenodd" d="M49.5667 7.96191H53.0283C54.1867 7.96191 55.0587 8.28215 55.5501 8.88762C55.998 9.43902 56.1473 10.2263 55.992 11.2284C55.6478 13.5188 54.3325 14.6746 52.0521 14.6746H50.9569C50.7205 14.6746 50.5186 14.8549 50.4822 15.1004L50.0849 17.7359C50.0591 17.9077 49.9179 18.0339 49.7529 18.0339H47.9765C47.7999 18.0339 47.6643 17.8685 47.6921 17.685L49.092 8.38712C49.1289 8.14218 49.3303 7.96191 49.5667 7.96191ZM51.3704 12.6585C52.2885 12.6585 53.2374 12.6585 53.4261 11.3574C53.4955 10.9004 53.4403 10.5696 53.2586 10.3469C52.954 9.97363 52.3639 9.97363 51.7393 9.97363H51.5C51.3578 9.97363 51.2373 10.0818 51.2155 10.2287L50.8486 12.6585H51.3704Z" fill="#179BD7"/>
<path fill-rule="evenodd" clip-rule="evenodd" d="M61.7178 11.3156H63.3742C63.5519 11.3156 63.6875 11.4816 63.6602 11.6645L62.7639 17.6074C62.7269 17.8529 62.5255 18.0331 62.2892 18.0331H60.7967C60.6191 18.0331 60.4835 17.8677 60.5113 17.6832L60.5852 17.2007C60.5852 17.2007 59.7668 18.1948 58.2911 18.1948C57.4312 18.1948 56.7096 17.935 56.2035 17.3115C55.6528 16.6334 55.4287 15.6611 55.5866 14.6442C55.8912 12.6056 57.455 11.1523 59.2866 11.1523C60.0852 11.1523 60.8848 11.3347 61.2436 11.8803L61.36 12.0563L61.4334 11.5707C61.4546 11.4238 61.5756 11.3156 61.7178 11.3156ZM59.1946 16.3524C60.1532 16.3524 60.9057 15.6865 61.0646 14.6945C61.138 14.2142 61.0378 13.7784 60.7843 13.4661C60.5322 13.157 60.1496 12.9932 59.679 12.9932C58.7351 12.9932 57.9719 13.6808 57.8216 14.6643C57.7447 15.1468 57.8368 15.5799 58.0817 15.8843C58.3287 16.1907 58.7144 16.3524 59.1946 16.3524Z" fill="#179BD7"/>
<path d="M65.3285 8.21746L63.9079 17.6856C63.8801 17.869 64.0157 18.0344 64.1924 18.0344H65.6205C65.8579 18.0344 66.0593 17.8542 66.0958 17.6087L67.4966 8.31131C67.5244 8.12786 67.3888 7.96191 67.2122 7.96191H65.6129C65.4717 7.96244 65.3503 8.0706 65.3285 8.21746Z" fill="#179BD7"/>
<path d="M8.63002 19.8409L8.89471 18.0796L8.30511 18.0653H5.48975L7.44628 5.06885C7.45236 5.02961 7.47209 4.99303 7.50094 4.96705C7.52979 4.94107 7.56673 4.92676 7.60519 4.92676H12.3523C13.9283 4.92676 15.0158 5.27032 15.5837 5.94843C15.8499 6.26654 16.0194 6.59897 16.1014 6.9648C16.1874 7.34865 16.189 7.80727 16.1049 8.36661L16.0989 8.40744V8.76585L16.3651 8.92384C16.5893 9.04844 16.7674 9.19106 16.9041 9.35435C17.1318 9.62634 17.2791 9.97202 17.3413 10.3819C17.4056 10.8034 17.3843 11.3049 17.2791 11.8727C17.1576 12.5259 16.9612 13.0948 16.6961 13.5603C16.4521 13.9893 16.1414 14.345 15.7724 14.6207C15.4202 14.8826 15.0017 15.0814 14.5285 15.2087C14.07 15.3338 13.5472 15.3969 12.9738 15.3969H12.6043C12.3402 15.3969 12.0836 15.4966 11.8821 15.6753C11.6802 15.8576 11.5466 16.1068 11.5056 16.3793L11.4778 16.5379L11.0102 19.6421L10.9889 19.7561C10.9833 19.7922 10.9737 19.8102 10.9595 19.8224C10.9469 19.8335 10.9287 19.8409 10.911 19.8409H8.63002Z" fill="#253B80"/>
<path d="M16.6199 8.44824C16.6057 8.54315 16.5895 8.64017 16.5713 8.73985C15.9453 12.1071 13.8035 13.2703 11.0681 13.2703H9.67534C9.34081 13.2703 9.05892 13.5248 9.0068 13.8705L8.29372 18.6082L8.09179 19.9512C8.05788 20.1781 8.22489 20.3828 8.44352 20.3828H10.9137C11.2063 20.3828 11.4547 20.1601 11.5008 19.8579L11.5251 19.7264L11.9902 16.6343L12.02 16.4647C12.0656 16.1614 12.3146 15.9387 12.6071 15.9387H12.9766C15.3698 15.9387 17.2434 14.9208 17.791 11.975C18.0197 10.7445 17.9013 9.71698 17.296 8.99434C17.1128 8.77643 16.8856 8.59563 16.6199 8.44824Z" fill="#179BD7"/>
<path d="M15.9631 8.17486C15.8674 8.1457 15.7688 8.11919 15.6675 8.09533C15.5658 8.072 15.4616 8.05132 15.3543 8.0333C14.9787 7.96967 14.5673 7.93945 14.1265 7.93945H10.4057C10.3141 7.93945 10.2271 7.96119 10.1491 8.00042C9.97758 8.08685 9.85005 8.25704 9.81918 8.4654L9.02766 13.7174L9.00488 13.8707C9.05701 13.525 9.3389 13.2705 9.67343 13.2705H11.0662C13.8016 13.2705 15.9434 12.1067 16.5694 8.74004C16.5881 8.64036 16.6038 8.54334 16.618 8.44843C16.4596 8.36042 16.288 8.28514 16.1033 8.22098C16.0577 8.20508 16.0107 8.1897 15.9631 8.17486Z" fill="#222D65"/>
<path d="M9.82012 8.4657C9.85099 8.25734 9.97852 8.08715 10.1501 8.00126C10.2285 7.96203 10.3151 7.94029 10.4067 7.94029H14.1274C14.5682 7.94029 14.9797 7.97051 15.3552 8.03413C15.4625 8.05216 15.5667 8.07283 15.6685 8.09616C15.7697 8.12002 15.8684 8.14653 15.964 8.17569C16.0116 8.19054 16.0587 8.20591 16.1047 8.22129C16.2894 8.28544 16.461 8.36126 16.6194 8.44874C16.8056 7.20439 16.6179 6.35715 15.9757 5.58997C15.2676 4.74538 13.9898 4.38379 12.3546 4.38379H7.6075C7.27348 4.38379 6.98855 4.63828 6.93693 4.98449L4.95965 18.1146C4.92068 18.3744 5.11198 18.6087 5.36199 18.6087H8.29274L9.02859 13.7177L9.82012 8.4657Z" fill="#253B80"/>
</svg>
