<svg width="39" height="25" viewBox="0 0 39 25" fill="none" xmlns="http://www.w3.org/2000/svg">
<g clip-path="url(#clip0)">
<path d="M35.5 0.5H3.5C1.8 0.5 0.5 1.8 0.5 3.5V21.5C0.5 23.2 1.9 24.5 3.5 24.5H35.5C37.2 24.5 38.5 23.2 38.5 21.5V3.5C38.5 1.8 37.1 0.5 35.5 0.5Z" fill="#DEDEDE"/>
<path d="M35.5 1.5C36.6 1.5 37.5 2.4 37.5 3.5V21.5C37.5 22.6 36.6 23.5 35.5 23.5H3.5C2.4 23.5 1.5 22.6 1.5 21.5V3.5C1.5 2.4 2.4 1.5 3.5 1.5H35.5Z" fill="white"/>
<path d="M7 4.5H14.5C15.3 4.5 15.8 5 15.6 5.8L13.1 18.8C12.9 19.6 12.1 20.3 11.3 20.3H3.8C3 20.3 2.5 19.6 2.7 18.8L5.2 5.8C5.4 5 6.2 4.5 7 4.5Z" fill="#E21836"/>
<path d="M14 4.5H22.5C23.3 4.5 23.8 5 23.6 5.8L21.1 18.8C20.9 19.6 20.1 20.3 19.3 20.3H10.8C10 20.3 9.5 19.6 9.7 18.8L12.2 5.8C12.4 5 13.2 4.5 14 4.5Z" fill="#00447C"/>
<path d="M22 4.5H30C30.8 4.5 31.3 5 31.1 5.8L28.6 18.8C28.4 19.6 27.6 20.3 26.8 20.3H18.8C18 20.3 17.5 19.6 17.7 18.8L20.2 5.8C20.4 5 21.2 4.5 22 4.5Z" fill="#007B84"/>
<text x="6" y="15" font-family="Arial, sans-serif" font-size="5" font-weight="bold" fill="white">银联</text>
<text x="16" y="15" font-family="Arial, sans-serif" font-size="3.5" font-weight="bold" fill="white">UnionPay</text>
</g>
<defs>
<clipPath id="clip0">
<rect width="38" height="24" fill="white" transform="translate(0.5 0.5)"/>
</clipPath>
</defs>
</svg>
